<svg width="26" height="26" xmlns="http://www.w3.org/2000/svg"><path d="M25.435 8.048H21.24L16.88.29a.56.56 0 0 0-.77-.214.58.58 0 0 0-.21.784l4.038 7.188H6.061L10.099.86a.58.58 0 0 0-.21-.784.56.56 0 0 0-.77.214l-4.36 7.758H.565A.57.57 0 0 0 0 8.622v2.875a.57.57 0 0 0 .565.574h24.87a.57.57 0 0 0 .565-.574V8.622a.57.57 0 0 0-.565-.574zM24.143 13H2.786v11.87c0 .624.503 1.13 1.124 1.13h19.109c.62 0 1.124-.506 1.124-1.13V13zM9.53 22.043a.563.563 0 0 1-.562.566.563.563 0 0 1-.562-.566v-5.086c0-.313.252-.566.562-.566.31 0 .562.253.562.566v5.086zm4.496 0a.563.563 0 0 1-.562.566.563.563 0 0 1-.562-.566v-5.086c0-.313.252-.566.562-.566.31 0 .562.253.562.566v5.086zm4.497 0a.563.563 0 0 1-.562.566.563.563 0 0 1-.563-.566v-5.086a.563.563 0 0 1 1.124 0v5.086z" fill="#FFF"/></svg>