
<svg width="20px" height="20px" viewBox="0 0 20 20" version="1.1" xmlns="http://www.w3.org/2000/svg" xmlns:xlink="http://www.w3.org/1999/xlink">
    <!-- Generator: Sketch 48.1 (47250) - http://www.bohemiancoding.com/sketch -->
    <desc>Created with Sketch.</desc>
    <defs></defs>
    <g id="Components" stroke="none" stroke-width="1" fill="none" fill-rule="evenodd">
        <g id="Navigation" transform="translate(-1004.000000, -94.000000)" fill="#303030" fill-rule="nonzero">
            <g id="Nav">
                <g id="Search" transform="translate(460.000000, 82.000000)">
                    <g transform="translate(544.000000, 12.000000)" id="Shape">
                        <path d="M15.875,14.0372671 C17,12.5465839 17.625,10.8074534 17.625,8.81987578 C17.625,3.97515528 13.75,0 8.875,0 C4,0 0,3.97515528 0,8.81987578 C0,13.6645963 4,17.6397516 8.875,17.6397516 C10.875,17.6397516 12.75,17.0186335 14.125,15.9006211 L17.875,19.6273292 C18.125,19.8757764 18.5,20 18.75,20 C19,20 19.375,19.8757764 19.625,19.6273292 C20.125,19.1304348 20.125,18.3850932 19.625,17.8881988 L15.875,14.0372671 Z M8.875,15.0310559 C5.375,15.0310559 2.5,12.2981366 2.5,8.81987578 C2.5,5.34161491 5.375,2.48447205 8.875,2.48447205 C12.375,2.48447205 15.25,5.34161491 15.25,8.81987578 C15.25,12.2981366 12.375,15.0310559 8.875,15.0310559 Z"></path>
                    </g>
                </g>
            </g>
        </g>
    </g>
</svg>
