<svg width="17px" height="17px" viewBox="0 0 17 17" version="1.1" xmlns="http://www.w3.org/2000/svg" xmlns:xlink="http://www.w3.org/1999/xlink">
										<g stroke="none" stroke-width="1" fill="none" fill-rule="evenodd">
												<g transform="translate(-415.000000, -928.000000)" fill="#D34136" fill-rule="nonzero" id="Image">
														<g transform="translate(137.000000, 335.000000)">
																<g id="Share" transform="translate(268.000000, 593.000000)">
																		<g id="square-upload" transform="translate(10.000000, 0.000000)">
																				<path d="M0.361702128,12.2978723 C0.162042553,12.2978723 0,12.4599149 0,12.6595745 L0,16.2765957 C0,16.4762553 0.162042553,16.6382979 0.361702128,16.6382979 L16.2765957,16.6382979 C16.4762553,16.6382979 16.6382979,16.4762553 16.6382979,16.2765957 L16.6382979,12.6595745 C16.6382979,12.4599149 16.4762553,12.2978723 16.2765957,12.2978723 C16.0769362,12.2978723 15.9148936,12.4599149 15.9148936,12.6595745 L15.9148936,15.9148936 L0.723404255,15.9148936 L0.723404255,12.6595745 C0.723404255,12.4599149 0.561361702,12.2978723 0.361702128,12.2978723 Z" id="Shape"></path>
																				<path d="M8.60344681,0.138170213 C8.4663617,-0.0361702128 8.17193617,-0.0361702128 8.03485106,0.138170213 L4.05612766,5.202 C3.97040426,5.31087234 3.95448936,5.45880851 4.01525532,5.58359574 C4.07602128,5.70838298 4.20189362,5.78723404 4.34042553,5.78723404 L7.59574468,5.78723404 L7.59574468,13.3829787 C7.59574468,13.5826383 7.75778723,13.7446809 7.95744681,13.7446809 L8.68085106,13.7446809 C8.88051064,13.7446809 9.04255319,13.5826383 9.04255319,13.3829787 L9.04255319,5.78723404 L12.2978723,5.78723404 C12.4364043,5.78723404 12.5626383,5.70802128 12.6230426,5.58359574 C12.6834468,5.45917021 12.6678936,5.31087234 12.5821702,5.202 L8.60344681,0.138170213 Z" id="Shape"></path>
																		</g>
																</g>
														</g>
												</g>
										</g>
								</svg>